<?xml version="1.0" encoding="utf-8"?>
<!-- Generator: Adobe Illustrator 14.0.0, SVG Export Plug-In  -->
<!DOCTYPE svg PUBLIC "-//W3C//DTD SVG 1.1//EN" "http://www.w3.org/Graphics/SVG/1.1/DTD/svg11.dtd" [
	<!ENTITY ns_flows "http://ns.adobe.com/Flows/1.0/">
]>
<svg version="1.1"
	 xmlns="http://www.w3.org/2000/svg" xmlns:xlink="http://www.w3.org/1999/xlink" xmlns:a="http://ns.adobe.com/AdobeSVGViewerExtensions/3.0/"
	 x="0px" y="0px" width="512px" height="272px" viewBox="0 0 512 272" enable-background="new 0 0 512 272" xml:space="preserve">
<defs>
</defs>
<path fill="#F2CC8F" d="M256,0C114.846,0,0,114.847,0,256.001c0,8.692,7.048,15.74,15.738,15.74c0.385,0,1.845,0,2.23,0H134.17
	c0.376,0,1.852,0,2.23,0c8.69,0,15.738-7.05,15.738-15.74c0-57.271,46.593-103.86,103.86-103.86
	c57.267,0,103.861,46.592,103.861,103.86c0,8.692,7.047,15.74,15.737,15.74c0.376,0,1.853,0,2.229,0h116.203c0.385,0,1.841,0,2.23,0
	c8.69,0,15.736-7.05,15.736-15.74C512,114.847,397.156,0,256,0z M256,31.481c118.509,0,215.793,92.299,223.906,208.778h-26.297
	C445.555,138.261,360.038,57.706,256,57.706S66.445,138.261,58.391,240.26H32.094C40.208,123.781,137.491,31.481,256,31.481z
	 M256,120.664c-69.294,0-126.508,52.367-134.346,119.597h-31.67C97.944,155.646,169.33,89.185,256,89.185
	c86.669,0,158.056,66.461,166.017,151.076h-31.67C382.51,173.032,325.295,120.664,256,120.664z"/>
</svg>
